<?xml version="1.0" standalone="no"?>
<!DOCTYPE svg PUBLIC "-//W3C//DTD SVG 20010904//EN"
 "http://www.w3.org/TR/2001/REC-SVG-20010904/DTD/svg10.dtd">
<svg version="1.0" xmlns="http://www.w3.org/2000/svg"
 width="400.000000pt" height="400.000000pt" viewBox="0 0 400.000000 400.000000"
 preserveAspectRatio="xMidYMid meet">
<metadata>
Created by potrace 1.14, written by Peter Selinger 2001-2017
</metadata>
<g transform="translate(0.000000,400.000000) scale(0.100000,-0.100000)"
fill="#000000" stroke="none">
<path d="M0 2000 l0 -2000 2000 0 2000 0 0 2000 0 2000 -2000 0 -2000 0 0
-2000z m2686 1200 c40 -16 53 -61 48 -175 -6 -141 -5 -138 -68 -158 -29 -10
-59 -24 -65 -31 -17 -21 -32 -313 -31 -620 0 -186 -3 -273 -11 -283 -7 -7 -9
-32 -7 -58 4 -31 2 -45 -8 -49 -22 -8 -16 -24 14 -38 30 -14 41 -62 24 -95 -6
-11 -7 -36 -2 -60 4 -24 3 -40 -1 -37 -5 3 -9 14 -9 24 0 10 -4 22 -10 25 -14
9 -13 -5 11 -125 11 -58 22 -142 24 -187 3 -70 8 -91 35 -138 22 -39 39 -57
58 -61 15 -4 33 -11 40 -17 16 -12 16 -175 1 -227 -11 -35 -16 -39 -69 -54
-43 -12 -92 -16 -192 -14 -73 2 -180 -3 -238 -10 -78 -9 -113 -9 -138 -1 -34
11 -34 12 -26 53 5 22 7 83 6 134 l-3 92 50 57 51 57 0 80 c6 819 11 1128 23
1426 2 50 -2 60 -37 110 -22 30 -48 63 -60 73 -16 14 -23 43 -36 138 -12 90
-14 124 -5 136 15 20 80 32 180 33 44 1 100 5 125 9 57 11 292 4 326 -9z
m-1041 -16 c34 -14 37 -14 32 0 -6 16 8 23 17 8 4 -6 166 -7 248 -2 9 1 26 -7
37 -16 19 -16 20 -26 15 -89 -8 -90 -8 -82 0 -141 l7 -50 -38 -18 c-80 -36
-132 -103 -110 -142 6 -11 10 -60 9 -114 -9 -348 -11 -396 -27 -460 -15 -63
-15 -73 -1 -130 12 -44 16 -109 16 -233 0 -114 5 -201 16 -259 14 -79 14 -93
0 -163 -9 -43 -16 -86 -16 -97 0 -11 23 -45 50 -76 75 -84 88 -118 96 -253 l7
-117 -38 -12 c-29 -10 -45 -10 -74 0 -28 9 -66 9 -176 -2 -145 -14 -158 -13
-362 23 -84 15 -82 12 -78 172 2 79 6 102 21 119 23 25 74 48 108 48 20 0 25
6 31 38 5 31 -3 1321 -9 1492 -3 81 -19 105 -85 130 l-57 21 -2 130 c0 72 -3
138 -6 147 -11 36 8 44 118 46 58 2 109 6 113 9 12 13 101 7 138 -9z m1045
-353 c0 -6 -4 -13 -10 -16 -5 -3 -10 1 -10 9 0 9 5 16 10 16 6 0 10 -4 10 -9z
m-93 -573 c-3 -7 -5 -2 -5 12 0 14 2 19 5 13 2 -7 2 -19 0 -25z m-607 -339 c0
-11 -4 -18 -10 -14 -5 3 -7 12 -3 20 7 21 13 19 13 -6z m619 -402 c1 -10 -3
-15 -9 -12 -5 3 -10 21 -9 38 0 27 2 29 9 12 5 -11 9 -28 9 -38z m21 -41 c0
-8 -5 -18 -10 -21 -6 -4 -7 -11 -4 -17 4 -7 2 -8 -4 -4 -18 11 -15 56 3 56 8
0 15 -6 15 -14z m-656 -242 c9 -22 -3 -32 -14 -14 -12 19 -12 30 -1 30 5 0 12
-7 15 -16z m-727 -181 c-3 -10 -5 -2 -5 17 0 19 2 27 5 18 2 -10 2 -26 0 -35z
m2 -190 c-1 -35 -1 -36 -9 -11 -4 14 -11 31 -15 37 -3 6 1 11 9 11 12 0 16
-10 15 -37z m1164 -60 c-13 -2 -35 -2 -50 0 -16 2 -5 4 22 4 28 0 40 -2 28 -4z
m70 0 c-7 -2 -19 -2 -25 0 -7 3 -2 5 12 5 14 0 19 -2 13 -5z"/>
<path d="M2378 2414 c-5 -4 -8 -28 -7 -53 l1 -46 9 34 c11 36 9 77 -3 65z"/>
<path d="M2367 2233 c-11 -10 -8 -51 3 -58 6 -4 10 8 10 29 0 37 -2 41 -13 29z"/>
<path d="M2317 1806 c-3 -8 -2 -18 3 -21 13 -8 24 15 12 27 -6 6 -11 4 -15 -6z"/>
<path d="M2250 1751 c0 -11 5 -23 10 -26 6 -3 10 3 10 14 0 10 6 22 13 24 6 3
2 6 -10 6 -16 1 -23 -5 -23 -18z"/>
<path d="M2265 1630 c3 -5 8 -10 11 -10 2 0 4 5 4 10 0 6 -5 10 -11 10 -5 0
-7 -4 -4 -10z"/>
<path d="M2336 1552 c-8 -13 18 -37 43 -40 18 -3 22 0 18 12 -4 9 -2 16 4 16
6 0 7 5 4 10 -7 12 -62 14 -69 2z"/>
<path d="M2273 1376 c5 -16 57 -20 57 -4 0 8 -13 13 -30 14 -18 1 -29 -3 -27
-10z"/>
<path d="M2438 1245 c-6 -14 -8 -28 -5 -31 10 -11 37 17 37 37 0 27 -18 23
-32 -6z"/>
<path d="M2595 1079 c-10 -14 -1 -21 19 -13 9 3 13 10 10 15 -7 12 -21 11 -29
-2z"/>
<path d="M2485 1010 c3 -5 8 -10 11 -10 2 0 4 5 4 10 0 6 -5 10 -11 10 -5 0
-7 -4 -4 -10z"/>
<path d="M1665 3100 c-4 -6 8 -10 29 -10 19 0 38 5 41 10 4 6 -8 10 -29 10
-19 0 -38 -4 -41 -10z"/>
<path d="M1598 1513 c-24 -6 -23 -33 0 -33 10 0 24 -6 31 -12 11 -11 13 -10 8
4 -3 10 -1 20 5 24 9 6 -9 25 -22 23 -3 -1 -13 -3 -22 -6z"/>
<path d="M1670 1511 c0 -5 -3 -17 -6 -26 -6 -15 -4 -15 15 -4 25 16 27 25 6
33 -8 3 -15 1 -15 -3z"/>
<path d="M1770 1390 c0 -5 5 -10 10 -10 6 0 10 5 10 10 0 6 -4 10 -10 10 -5 0
-10 -4 -10 -10z"/>
<path d="M1741 1234 c0 -11 3 -14 6 -6 3 7 2 16 -1 19 -3 4 -6 -2 -5 -13z"/>
<path d="M1440 947 c0 -18 27 -53 35 -46 7 8 -15 59 -27 59 -4 0 -8 -6 -8 -13z"/>
</g>
</svg>
